<?xml version="1.0" standalone="no"?>
<!DOCTYPE svg PUBLIC "-//W3C//DTD SVG 20010904//EN"
 "http://www.w3.org/TR/2001/REC-SVG-20010904/DTD/svg10.dtd">
<svg version="1.0" xmlns="http://www.w3.org/2000/svg"
 width="400.000000pt" height="240.000000pt" viewBox="0 0 400.000000 240.000000"
 preserveAspectRatio="xMidYMid meet">

<g transform="translate(0.000000,240.000000) scale(0.100000,-0.100000)"
fill="#000000" stroke="none">
<path d="M542 1946 c-12 -13 -24 -50 -31 -95 -6 -41 -14 -78 -17 -83 -3 -4
-20 -8 -37 -8 -51 0 -107 -20 -134 -46 -17 -17 -35 -24 -63 -24 l-40 0 0 -52
-1 -53 -87 -42 c-89 -42 -112 -66 -112 -115 0 -18 4 -19 38 -14 20 4 66 21
102 39 54 27 67 38 76 67 6 19 16 36 23 38 16 5 90 -40 125 -77 l29 -31 -49
-70 c-27 -38 -61 -86 -76 -107 -15 -21 -27 -50 -28 -64 0 -23 3 -26 28 -21 15
3 38 13 51 24 23 17 102 114 121 148 7 12 14 9 39 -20 17 -19 30 -40 31 -46 0
-6 -24 -44 -52 -84 -89 -123 -89 -122 -83 -157 l6 -33 -91 0 c-52 0 -90 4 -90
10 0 5 5 30 12 55 11 39 10 47 -2 55 -17 10 -70 -34 -70 -58 0 -8 -32 -47 -71
-87 -80 -83 -98 -125 -74 -182 19 -44 50 -43 115 3 90 64 186 79 325 48 39 -8
95 -19 126 -24 57 -8 160 -54 216 -96 17 -13 36 -24 42 -24 6 0 17 -10 26 -23
19 -30 134 -113 149 -109 6 2 39 8 74 13 34 5 86 21 114 35 69 35 166 128 190
183 10 24 17 45 16 46 -2 1 -28 -1 -58 -5 -30 -5 -81 -6 -113 -3 l-58 6 35 36
c64 66 95 177 65 232 -6 11 -8 25 -6 32 3 7 9 0 15 -14 7 -17 25 -32 54 -43
35 -13 55 -34 111 -108 l67 -92 -33 -17 c-41 -22 -53 -36 -61 -75 -5 -23 -2
-37 13 -55 19 -23 19 -23 55 -6 20 9 53 17 74 17 20 0 46 7 56 15 11 8 34 15
51 15 17 0 36 5 42 11 6 6 62 15 124 20 96 8 116 13 128 29 7 11 24 20 37 20
23 0 24 -2 17 -42 l-6 -43 24 16 c13 9 59 69 102 134 92 138 87 140 141 -32
44 -140 71 -210 96 -252 19 -29 25 -33 51 -27 17 3 39 1 49 -4 32 -17 152 84
185 155 l14 30 1 -26 c0 -28 30 -73 59 -89 27 -14 89 9 112 41 25 36 87 59
180 67 88 8 132 5 123 -10 -4 -5 5 -2 20 7 22 14 39 16 104 11 134 -12 223
-45 347 -130 68 -46 114 -53 157 -24 14 10 29 18 33 18 3 0 36 26 71 58 68 59
104 114 104 155 0 23 -3 24 -106 31 -67 4 -148 18 -222 38 -64 17 -144 37
-177 45 -174 41 -175 42 -175 163 0 48 2 94 5 102 4 10 26 12 88 10 45 -2 106
1 135 5 l54 8 24 70 c14 39 22 80 19 93 -5 22 -8 22 -146 22 l-140 0 6 23 c4
12 24 54 45 92 l38 70 95 3 95 3 32 55 c35 62 33 86 -8 103 -33 13 -352 31
-560 31 -168 0 -203 -8 -241 -56 -18 -23 -22 -38 -18 -71 l4 -42 -51 -23 c-40
-18 -69 -23 -136 -23 -76 0 -91 3 -142 31 l-57 31 -62 -31 c-48 -24 -79 -32
-135 -34 l-71 -4 -6 48 c-24 203 -36 234 -84 234 -16 0 -27 -8 -34 -27 -11
-30 -7 -60 27 -213 13 -58 24 -108 24 -111 0 -15 -50 -15 -64 -1 -13 14 -13
18 1 45 15 29 14 32 -7 49 -13 10 -30 16 -39 14 -9 -2 -26 -7 -37 -11 -14 -3
-28 1 -39 11 -13 13 -19 14 -24 5 -6 -10 -21 -10 -66 -2 -32 6 -60 13 -62 15
-2 2 4 12 14 23 13 15 41 24 103 32 99 14 125 29 116 64 -3 14 -13 27 -21 31
-35 13 -238 28 -343 24 -110 -3 -115 -4 -138 -31 -37 -43 -32 -64 19 -78 23
-7 69 -13 102 -13 61 0 75 -7 75 -38 0 -24 -55 -34 -84 -14 -22 14 -25 13 -42
-5 -13 -14 -25 -18 -42 -14 -15 4 -34 -1 -49 -10 -20 -14 -24 -23 -20 -48 3
-25 -4 -41 -35 -81 -22 -28 -53 -76 -69 -108 -24 -47 -34 -58 -54 -58 -27 0
-32 9 -13 28 9 9 -18 12 -125 12 -119 0 -137 2 -146 18 -8 14 3 30 62 90 61
61 70 75 61 90 -7 9 -19 16 -28 14 -12 -2 -16 5 -16 25 0 22 6 31 29 40 34 13
61 50 64 89 2 31 -4 33 -144 49 -56 6 -57 6 -63 44 -7 47 -40 80 -64 65 -9 -6
-33 -35 -53 -64 -20 -29 -48 -59 -62 -67 -39 -20 -53 -51 -33 -72 13 -12 42
-17 128 -19 179 -6 172 -21 -9 -21 l-163 -1 0 24 c0 21 -5 24 -68 29 -38 4
-83 10 -101 13 l-32 7 33 28 c18 15 38 28 45 29 16 0 53 49 53 71 0 27 -42 70
-72 73 -18 2 -34 -4 -46 -18z m2411 -294 c14 -16 97 -182 97 -195 0 -2 -22 -7
-50 -11 -31 -4 -60 -16 -80 -32 l-30 -26 0 141 0 141 23 0 c13 0 31 -8 40 -18z
m-493 -22 c0 -22 66 -49 132 -56 37 -4 68 -9 68 -13 0 -3 -7 -15 -15 -25 -11
-14 -15 -45 -15 -104 0 -69 4 -88 21 -110 l20 -26 -20 -8 c-23 -8 -27 -34 -12
-85 12 -43 -6 -71 -112 -166 l-85 -78 -84 86 c-89 93 -115 130 -98 140 5 3 10
28 10 56 0 43 -3 49 -21 49 l-20 0 20 26 c18 23 21 41 21 119 0 70 -4 96 -15
105 -23 19 -18 30 13 30 41 0 123 27 152 50 28 22 40 25 40 10z m-792 -48 l43
-35 33 32 c35 34 55 34 85 -3 10 -12 8 -15 -8 -21 -35 -11 -61 -54 -61 -101 0
-24 -5 -44 -10 -44 -6 0 -41 25 -78 55 -67 56 -67 56 -84 35 -29 -35 -58 -128
-58 -183 0 -56 31 -142 70 -197 l23 -32 13 31 c21 50 33 101 24 101 -5 0 -23
-12 -40 -26 -17 -15 -33 -24 -36 -21 -3 3 3 26 14 50 28 64 85 100 165 105 34
2 66 8 72 13 12 11 175 12 175 1 0 -5 -9 -17 -20 -27 -18 -16 -20 -33 -22
-189 l-3 -171 -64 -3 c-35 -2 -71 0 -80 3 -14 6 -14 7 2 16 15 9 17 28 17 174
0 167 -7 200 -37 160 -10 -14 -13 -61 -13 -182 0 -181 0 -180 -63 -137 l-38
25 -32 -23 c-54 -41 -55 -41 -88 -6 -97 104 -159 211 -159 273 0 13 -7 28 -15
32 -25 14 70 193 145 276 37 40 67 64 73 60 7 -4 31 -22 55 -41z m-1078 24 c0
-8 -7 -16 -15 -20 -8 -3 -15 -11 -15 -19 0 -14 117 -187 126 -187 13 0 114
138 126 171 8 21 -10 39 -39 39 -14 0 -23 6 -23 15 0 13 23 15 145 15 91 0
145 -4 145 -10 0 -6 -24 -21 -53 -34 -53 -23 -93 -64 -210 -209 l-47 -58 0
-155 0 -154 25 -10 c14 -5 25 -17 25 -25 0 -13 -16 -15 -112 -13 -63 2 -113 7
-115 13 -1 6 11 18 28 27 l30 18 -3 152 -3 153 -77 105 c-90 124 -113 147
-164 165 -76 26 -52 35 90 35 110 0 136 -3 136 -14z m2740 9 c0 -3 -9 -24 -21
-46 -28 -55 -62 -190 -50 -202 5 -5 4 -26 -5 -51 -7 -22 -18 -70 -23 -105 -10
-62 -21 -81 -48 -81 -9 0 -13 18 -13 55 0 44 -3 53 -15 49 -12 -5 -15 5 -15
52 0 71 -31 217 -60 280 -11 26 -20 48 -20 50 0 2 61 4 135 4 74 0 135 -2 135
-5z m-1367 -157 l-47 -48 -43 42 c-24 23 -43 47 -43 52 0 6 19 30 42 53 l42
43 48 -47 48 -47 -47 -48z m847 -28 c0 -93 2 -170 4 -170 2 0 38 16 80 35 43
19 78 35 80 35 1 0 0 -53 -2 -117 -2 -73 0 -129 7 -147 l12 -29 25 24 c21 19
23 25 10 27 -9 2 -16 7 -16 11 0 11 97 51 122 51 18 0 18 -2 -4 -42 -13 -22
-56 -77 -97 -120 l-74 -79 -22 21 c-40 37 -69 110 -73 183 -2 37 -8 67 -12 67
-4 0 -17 -8 -29 -17 -18 -16 -21 -31 -23 -113 l-3 -95 -69 -3 c-74 -3 -102 8
-67 27 20 11 21 18 21 261 0 155 -4 251 -10 255 -5 3 -10 10 -10 15 0 10 120
89 138 89 9 1 12 -39 12 -169z m-2063 116 c6 -6 -49 -76 -59 -76 -13 0 -57 73
-51 83 5 9 100 3 110 -7z m1392 -127 c14 -39 14 -49 1 -49 -5 0 -10 7 -10 15
0 12 -15 15 -72 15 -71 0 -71 0 -53 20 13 14 29 20 51 18 18 -1 36 1 40 5 16
15 33 5 43 -24z m-485 -15 c15 -14 27 -27 25 -28 -6 -6 -83 -26 -86 -23 -4 5
20 77 26 77 3 0 19 -12 35 -26z m186 6 c0 -5 -2 -10 -4 -10 -3 0 -8 5 -11 10
-3 6 -1 10 4 10 6 0 11 -4 11 -10z m-920 -200 c0 -77 2 -140 5 -140 3 0 17 7
30 16 24 16 25 20 25 140 l0 124 85 0 c47 0 85 -4 85 -8 0 -5 -9 -17 -20 -27
-18 -16 -20 -31 -20 -150 0 -97 4 -136 14 -151 14 -19 15 -19 40 5 14 13 23
28 20 32 -5 9 55 43 63 35 22 -22 -113 -186 -153 -186 -10 0 -38 21 -64 48
l-45 47 -42 -23 c-46 -25 -78 -20 -120 20 -22 20 -23 29 -23 169 0 92 -4 150
-10 154 -8 5 -7 11 1 21 7 9 32 14 70 14 l59 0 0 -140z m422 55 l-17 -35 -94
0 -95 0 34 35 c33 34 36 35 112 35 l78 0 -18 -35z m863 18 c-4 -10 -10 -26
-12 -35 -5 -16 -19 -18 -104 -18 -55 0 -99 3 -99 8 0 4 14 19 32 34 30 25 41
27 112 28 71 0 77 -2 71 -17z m885 -33 c0 -22 -2 -40 -4 -40 -2 0 -11 -3 -20
-6 -13 -5 -16 1 -16 28 0 32 14 58 32 58 4 0 8 -18 8 -40z m-1840 -90 c0 -6
-15 -15 -62 -38 -5 -2 -8 5 -8 16 0 14 8 22 23 24 35 6 47 5 47 -2z m926 -26
c5 -18 1 -33 -14 -52 -12 -15 -43 -62 -69 -104 -27 -43 -51 -78 -55 -78 -10 0
-11 244 -1 253 3 4 35 7 69 7 60 0 64 -1 70 -26z m1089 -94 l30 -32 -49 -44
-49 -45 -44 43 c-23 23 -43 45 -43 49 0 4 21 23 47 42 53 39 60 38 108 -13z
m-2725 26 c0 -30 -13 -46 -37 -46 l-25 0 24 29 c25 33 38 38 38 17z m2150
-196 c0 -12 -44 -12 -80 0 -20 6 -14 8 28 9 28 1 52 -3 52 -9z"/>
<path d="M2432 1590 c-6 -11 -34 -23 -64 -30 l-53 -12 3 -100 c3 -81 0 -103
-13 -118 -15 -16 -15 -18 0 -24 14 -5 16 -19 14 -77 -3 -64 -1 -73 23 -101 28
-33 28 -58 0 -36 -9 7 10 -17 42 -54 l58 -68 82 76 c90 84 128 134 103 134 -9
0 -22 3 -30 6 -11 4 -21 -7 -35 -38 -10 -24 -41 -64 -67 -90 l-49 -47 -44 57
-44 57 7 77 c5 56 4 83 -5 93 -10 12 -10 18 0 30 8 10 11 45 8 110 -2 78 0 96
12 99 49 14 78 14 105 1 l30 -15 -30 7 c-31 6 -55 7 -89 0 -17 -3 -19 -12 -17
-96 1 -56 -2 -98 -9 -106 -8 -9 -8 -15 0 -20 6 -3 10 -45 10 -99 l0 -92 38
-37 38 -37 32 33 c31 32 32 35 32 123 0 51 5 95 11 101 8 8 8 13 0 17 -12 8
-15 184 -3 202 4 6 16 16 28 22 20 10 20 9 16 -79 -4 -72 -1 -94 13 -115 12
-19 14 -29 6 -37 -6 -6 -11 -20 -11 -32 1 -20 1 -20 15 -1 14 19 15 18 16 -15
2 -33 2 -33 6 -4 2 17 11 35 19 41 12 10 12 13 -1 24 -23 19 -22 202 2 221 14
12 5 15 -72 19 -73 5 -90 9 -104 27 -17 20 -18 20 -29 3z m28 -290 c0 -100 -4
-160 -10 -160 -6 0 -10 60 -10 160 0 100 4 160 10 160 6 0 10 -60 10 -160z"/>
<path d="M1610 1599 c0 -6 -20 -33 -45 -61 -66 -73 -100 -150 -100 -223 0 -33
8 -79 18 -103 22 -54 23 -96 2 -88 -12 4 -13 2 -6 -12 21 -38 108 -137 123
-140 8 -2 30 9 47 24 20 16 39 24 51 21 11 -3 20 -1 20 4 0 15 30 10 37 -7 14
-37 23 17 23 146 0 92 4 140 12 148 9 9 9 12 -3 12 -9 0 -26 -11 -39 -25 -16
-17 -34 -25 -57 -25 -26 0 -42 -8 -64 -32 -38 -42 -37 -57 2 -24 43 36 53 33
45 -13 -5 -35 -4 -39 14 -34 12 3 21 0 24 -8 7 -22 15 -85 10 -72 -4 8 -23 0
-59 -23 -30 -18 -56 -34 -57 -34 -2 0 -21 22 -41 49 -26 34 -37 58 -37 82 l1
34 15 -27 c24 -45 26 -32 3 15 -15 28 -24 67 -27 118 -4 68 -1 84 22 135 15
33 34 69 42 82 l15 23 48 -41 c52 -44 66 -49 57 -22 -5 14 -4 14 9 -2 8 -11
15 -26 15 -34 0 -7 5 -10 10 -7 6 3 10 17 10 31 0 35 26 81 50 89 11 4 18 11
15 16 -13 20 -45 7 -77 -31 l-33 -39 -42 40 c-41 38 -61 66 -28 39 9 -7 18
-11 21 -8 2 3 -7 13 -21 22 -15 10 -25 12 -25 5z"/>
<path d="M1970 1333 c-8 -3 -27 -15 -42 -25 l-28 -19 0 -130 0 -131 -30 -30
c-16 -16 -30 -31 -30 -34 0 -2 27 -4 60 -4 33 0 60 3 60 7 0 3 -8 16 -17 27
-17 20 -17 20 0 7 16 -13 17 -5 17 142 0 148 1 157 22 177 21 20 18 24 -12 13z"/>
<path d="M400 1586 c14 -8 29 -12 34 -9 5 4 6 2 3 -4 -4 -6 6 -21 21 -34 14
-13 21 -17 14 -7 -8 10 -9 19 -3 22 10 6 41 -29 121 -137 23 -32 45 -55 48
-53 3 3 -1 12 -8 21 -15 18 0 20 19 3 19 -18 9 -1 -52 90 -37 56 -47 80 -43
98 7 28 5 29 -40 8 -24 -11 -38 -13 -47 -6 -6 6 -30 13 -52 17 -39 6 -39 6
-15 -9z"/>
<path d="M905 1586 c-19 -8 -66 -61 -132 -149 l-103 -135 1 -139 c1 -76 4
-124 8 -108 4 20 9 26 14 17 19 -29 27 6 27 117 l0 119 43 58 c73 99 186 213
220 223 l32 9 -40 1 c-22 0 -53 -6 -70 -13z"/>
<path d="M671 1354 c0 -11 3 -14 6 -6 3 7 2 16 -1 19 -3 4 -6 -2 -5 -13z"/>
<path d="M649 1000 c-13 -9 -36 -21 -52 -26 -21 -7 -3 -10 73 -12 64 -2 100 1
100 8 0 5 -8 10 -17 10 -10 0 -32 8 -49 19 -29 18 -31 18 -55 1z"/>
<path d="M3268 1586 c-78 -47 -78 -47 -78 -171 0 -82 -4 -116 -15 -131 -19
-25 -19 -35 1 -27 15 5 16 -2 12 -56 -3 -38 -1 -60 6 -58 17 6 46 140 51 237
3 57 36 168 61 208 18 28 9 28 -38 -2z"/>
<path d="M3118 1570 c23 -16 45 -30 49 -30 10 0 -70 59 -81 60 -5 0 10 -13 32
-30z"/>
<path d="M1916 1512 l-9 -63 -23 22 c-13 12 -21 26 -17 32 4 6 1 7 -7 2 -9 -5
-2 -17 24 -43 l36 -36 35 39 36 39 -28 25 c-18 18 -21 19 -9 4 17 -21 17 -21
-3 -16 -12 3 -21 15 -24 32 -2 16 -6 2 -11 -37z"/>
<path d="M2742 1305 c0 -197 -7 -285 -24 -285 -5 0 -7 4 -3 9 3 5 1 12 -5 16
-6 4 -10 -4 -10 -19 0 -14 -10 -34 -22 -46 l-22 -20 67 0 67 0 0 100 0 99 33
17 c17 9 42 26 55 37 l22 20 0 -56 0 -57 24 15 c23 15 25 15 29 -2 3 -10 5 19
6 64 0 45 4 90 7 100 3 10 -9 1 -28 -19 -25 -29 -44 -40 -83 -47 -27 -5 -59
-13 -70 -16 -19 -6 -19 -6 -2 8 14 12 17 30 16 108 0 97 -9 143 -23 121 -12
-20 -24 -13 -29 16 -2 15 -4 -58 -5 -163z"/>
<path d="M3045 1060 c-38 -34 -76 -59 -84 -58 -8 2 -26 19 -39 38 -55 82 -55
13 0 -73 l32 -50 66 71 c57 62 109 132 97 132 -2 0 -35 -27 -72 -60z"/>
<path d="M882 1324 c-20 -14 -22 -23 -22 -113 0 -97 0 -99 -25 -105 -21 -5
-25 -12 -25 -40 0 -51 8 -65 51 -87 37 -18 41 -18 70 -3 30 15 99 82 99 96 0
3 -18 -3 -40 -13 -58 -28 -100 -35 -111 -18 -13 21 -11 36 6 36 8 0 15 -4 15
-9 0 -4 -5 -8 -11 -8 -5 0 -7 -4 -4 -10 18 -29 23 4 24 140 1 83 0 150 -1 150
-2 0 -14 -7 -26 -16z"/>
<path d="M1088 1323 l-38 -15 2 -97 c0 -53 3 -81 5 -63 l4 33 20 -22 19 -22 0
83 c0 64 4 88 17 102 19 21 19 21 -29 1z"/>
<path d="M1160 985 c-42 -31 -63 -31 -91 -2 -18 18 -21 19 -15 4 3 -10 6 -27
6 -37 0 -11 9 -24 20 -30 24 -13 66 12 100 60 26 36 23 37 -20 5z"/>
<path d="M1260 1271 c-36 -3 -74 -12 -85 -18 -17 -10 -8 -12 55 -13 65 0 77 3
88 20 7 11 11 19 10 18 -2 0 -32 -4 -68 -7z"/>
<path d="M2115 1271 c-38 -3 -79 -12 -90 -18 -17 -10 -7 -12 60 -13 70 0 82 3
93 20 7 11 11 19 10 18 -2 -1 -34 -4 -73 -7z"/>
<path d="M3215 1039 c4 -23 3 -29 -3 -20 -7 10 -11 0 -13 -33 -2 -25 -3 -46
-1 -46 7 0 82 64 82 69 0 3 -16 19 -36 35 l-36 29 7 -34z"/>
<path d="M2368 1843 c-39 -3 -58 -9 -62 -20 -8 -20 13 -89 33 -107 14 -13 21
-11 56 13 30 20 41 35 45 62 4 19 10 40 14 47 5 8 1 11 -11 10 -10 -1 -43 -3
-75 -5z"/>
<path d="M152 1799 c-67 -5 -88 -11 -107 -29 -29 -27 -35 -87 -10 -96 48 -19
215 64 215 106 0 26 -4 27 -98 19z"/>
<path d="M185 1345 c-27 -13 -74 -46 -103 -74 -46 -44 -53 -55 -50 -83 3 -30
6 -33 32 -31 33 2 90 40 147 96 32 32 39 46 39 78 0 22 -3 39 -7 38 -5 0 -30
-11 -58 -24z"/>
</g>
</svg>
